<svg xmlns="http://www.w3.org/2000/svg" xmlns:xlink="http://www.w3.org/1999/xlink" width="1440" height="680" viewBox="0 0 1440 680">

<defs>
  <linearGradient id="bg" x1="0" y1="0" x2="1" y2="1">
    <stop offset="0" stop-color="#030407"/>
    <stop offset=".48" stop-color="#090d17"/>
    <stop offset="1" stop-color="#041116"/>
  </linearGradient>
  <linearGradient id="brand" x1="0" y1="0" x2="1" y2="1">
    <stop offset="0" stop-color="#a78bfa"/>
    <stop offset=".48" stop-color="#60a5fa"/>
    <stop offset="1" stop-color="#22d3ee"/>
  </linearGradient>
  <linearGradient id="glass" x1="0" y1="0" x2="1" y2="1">
    <stop offset="0" stop-color="#ffffff" stop-opacity=".14"/>
    <stop offset=".52" stop-color="#ffffff" stop-opacity=".055"/>
    <stop offset="1" stop-color="#ffffff" stop-opacity=".02"/>
  </linearGradient>
  <linearGradient id="metal" x1="0" y1="0" x2="1" y2="1">
    <stop offset="0" stop-color="#f8fafc"/>
    <stop offset=".25" stop-color="#64748b"/>
    <stop offset=".48" stop-color="#ffffff"/>
    <stop offset=".72" stop-color="#334155"/>
    <stop offset="1" stop-color="#cbd5e1"/>
  </linearGradient>
  <radialGradient id="orb">
    <stop offset="0" stop-color="#8b5cf6" stop-opacity=".42"/>
    <stop offset=".55" stop-color="#38bdf8" stop-opacity=".13"/>
    <stop offset="1" stop-color="#030407" stop-opacity="0"/>
  </radialGradient>
  <filter id="deepShadow" x="-80%" y="-80%" width="260%" height="260%">
    <feGaussianBlur in="SourceAlpha" stdDeviation="22" result="blur"/>
    <feOffset dx="0" dy="28" result="offset"/>
    <feColorMatrix in="offset" type="matrix"
      values="0 0 0 0 0
              0 0 0 0 0
              0 0 0 0 0
              0 0 0 .68 0" result="shadow"/>
    <feMerge><feMergeNode in="shadow"/><feMergeNode in="SourceGraphic"/></feMerge>
  </filter>
  <filter id="glow" x="-100%" y="-100%" width="300%" height="300%">
    <feGaussianBlur stdDeviation="9" result="b"/>
    <feMerge><feMergeNode in="b"/><feMergeNode in="SourceGraphic"/></feMerge>
  </filter>
</defs>
<rect width="1440" height="680" rx="38" fill="url(#bg)"/>

<circle cx="1180" cy="110" r="330" fill="url(#orb)"/>
<text x="720" y="62" text-anchor="middle" font-family="Inter,Arial,sans-serif" font-size="30" font-weight="300" fill="#ffffff">secure agent mesh</text>
<text x="720" y="98" text-anchor="middle" font-family="Inter,Arial,sans-serif" font-size="16" font-weight="300" fill="#94a3b8">trusted devices exchange capabilities and signed execution results</text>

<g transform="translate(115 180) rotate(-5 150.0 180.0)" filter="url(#deepShadow)">
  <rect x="12" y="18" width="300" height="360" rx="28" fill="#000000" opacity=".48"/>
  <rect width="300" height="360" rx="28" fill="url(#glass)" stroke="#a78bfa" stroke-opacity=".34"/>
  <path d="M28 34 H272" stroke="#ffffff" stroke-opacity=".16" stroke-width="2"/>
  <text x="30" y="58" font-family="Inter,Arial,sans-serif" font-size="12" font-weight="400" fill="#a78bfa">mobile</text>
  <text x="30" y="102" font-family="Inter,Arial,sans-serif" font-size="20" font-weight="300" fill="#ffffff">intent and approvals</text>
  <rect x="30" y="296" width="240" height="28" rx="14" fill="#a78bfa" opacity=".10"/>
</g>

<g transform="translate(440 125) rotate(3 160.0 215.0)" filter="url(#deepShadow)">
  <rect x="12" y="18" width="320" height="430" rx="28" fill="#000000" opacity=".48"/>
  <rect width="320" height="430" rx="28" fill="url(#glass)" stroke="#60a5fa" stroke-opacity=".34"/>
  <path d="M28 34 H292" stroke="#ffffff" stroke-opacity=".16" stroke-width="2"/>
  <text x="30" y="58" font-family="Inter,Arial,sans-serif" font-size="12" font-weight="400" fill="#60a5fa">desktop</text>
  <text x="30" y="102" font-family="Inter,Arial,sans-serif" font-size="20" font-weight="300" fill="#ffffff">planning and local tools</text>
  <rect x="30" y="366" width="260" height="28" rx="14" fill="#60a5fa" opacity=".10"/>
</g>

<g transform="translate(790 180) rotate(-3 150.0 180.0)" filter="url(#deepShadow)">
  <rect x="12" y="18" width="300" height="360" rx="28" fill="#000000" opacity=".48"/>
  <rect width="300" height="360" rx="28" fill="url(#glass)" stroke="#22d3ee" stroke-opacity=".34"/>
  <path d="M28 34 H272" stroke="#ffffff" stroke-opacity=".16" stroke-width="2"/>
  <text x="30" y="58" font-family="Inter,Arial,sans-serif" font-size="12" font-weight="400" fill="#22d3ee">workstation</text>
  <text x="30" y="102" font-family="Inter,Arial,sans-serif" font-size="20" font-weight="300" fill="#ffffff">specialized execution</text>
  <rect x="30" y="296" width="240" height="28" rx="14" fill="#22d3ee" opacity=".10"/>
</g>

<g transform="translate(1110 155) rotate(5 110.0 195.0)" filter="url(#deepShadow)">
  <rect x="12" y="18" width="220" height="390" rx="28" fill="#000000" opacity=".48"/>
  <rect width="220" height="390" rx="28" fill="url(#glass)" stroke="#34d399" stroke-opacity=".34"/>
  <path d="M28 34 H192" stroke="#ffffff" stroke-opacity=".16" stroke-width="2"/>
  <text x="30" y="58" font-family="Inter,Arial,sans-serif" font-size="12" font-weight="400" fill="#34d399">verifier</text>
  <text x="30" y="102" font-family="Inter,Arial,sans-serif" font-size="20" font-weight="300" fill="#ffffff">signed evidence</text>
  <rect x="30" y="326" width="160" height="28" rx="14" fill="#34d399" opacity=".10"/>
</g>

<circle r="7" fill="#ffffff" filter="url(#glow)">
  <animateMotion dur="6s" repeatCount="indefinite" path="M150 610 C420 520, 900 520, 1290 610"/>
</circle>
</svg>